<svg id="Layer_2" data-name="Layer 2" xmlns="http://www.w3.org/2000/svg" viewBox="0 0 18.3 18.3"><defs><style>.cls-1{fill:#fff;}.cls-2{fill:#003;}</style></defs><title>fb</title><g id="surface1"><path class="cls-1" d="M1.79.15A1.65,1.65,0,0,0,.15,1.79V16.51a1.65,1.65,0,0,0,1.64,1.64H16.51a1.65,1.65,0,0,0,1.64-1.64V1.79A1.65,1.65,0,0,0,16.51.15Zm0,1.64H16.51V16.51H12.27V11h2.12l.31-2.45H12.27V7c0-.71.18-1.2,1.2-1.2H14.8V3.53c-.23,0-1-.08-1.92-.08A3,3,0,0,0,9.71,6.7V8.54H7.56V11H9.71v5.52H1.79Z"/><path class="cls-2" d="M16.51.45a1.35,1.35,0,0,1,1.34,1.34V16.51a1.35,1.35,0,0,1-1.34,1.34H1.79A1.35,1.35,0,0,1,.45,16.51V1.79A1.35,1.35,0,0,1,1.79.45H16.51m-15,16.36H10V10.69H7.86V8.84H10V6.7a2.68,2.68,0,0,1,2.87-2.95c.68,0,1.28,0,1.62,0V5.45h-1c-1.33,0-1.5.8-1.5,1.5V8.84h2.39l-.23,1.85H12v6.12h4.84V1.49H1.49V16.81M16.51.15H1.79A1.65,1.65,0,0,0,.15,1.79V16.51a1.65,1.65,0,0,0,1.64,1.64H16.51a1.65,1.65,0,0,0,1.64-1.64V1.79A1.65,1.65,0,0,0,16.51.15ZM1.79,16.51V1.79H16.51V16.51H12.27V11h2.12l.31-2.45H12.27V7c0-.71.17-1.2,1.2-1.2H14.8V3.52c-.23,0-1-.07-1.92-.07A3,3,0,0,0,9.71,6.7V8.54H7.56V11H9.71v5.52Z"/></g></svg>