<svg id="Layer_2" data-name="Layer 2" xmlns="http://www.w3.org/2000/svg" viewBox="0 0 18.3 18.3"><defs><style>.cls-1{fill:#fff;}.cls-2{fill:#003;}</style></defs><title>linkedin</title><g id="surface1"><path class="cls-1" d="M2.2,18A1.93,1.93,0,0,1,.3,16.1V2.2A1.93,1.93,0,0,1,2.2.3H16.1A1.93,1.93,0,0,1,18,2.2V16.1A1.93,1.93,0,0,1,16.1,18Zm0-16.36a.55.55,0,0,0-.56.56V16.1a.55.55,0,0,0,.56.56H16.1a.55.55,0,0,0,.56-.56V2.2a.55.55,0,0,0-.56-.56ZM12.62,14.73V11.09c0-.87,0-2.19-1.4-2.19C9.61,8.9,9.61,10.46,9.61,11v3.69H7.51V7.25h2V8.33h.24l.1-.08A2.35,2.35,0,0,1,12,7.08c2.27,0,2.74,1.41,2.74,3.53v4.12Zm-9,0V7.25H5.7v7.48Zm1-8.87A1.26,1.26,0,1,1,5.86,4.6,1.27,1.27,0,0,1,4.6,5.86Z"/><path class="cls-2" d="M16.1.45A1.77,1.77,0,0,1,17.85,2.2V16.1a1.77,1.77,0,0,1-1.75,1.75H2.2A1.77,1.77,0,0,1,.45,16.1V2.2A1.77,1.77,0,0,1,2.2.45H16.1M2.2,16.81H16.1a.7.7,0,0,0,.71-.71V2.2a.7.7,0,0,0-.71-.71H2.2a.7.7,0,0,0-.71.71V16.1a.7.7,0,0,0,.71.71M4.6,3.49A1.11,1.11,0,1,1,3.49,4.6,1.11,1.11,0,0,1,4.6,3.49M12,7.23c2.15,0,2.59,1.29,2.59,3.38v4H12.77V11.09c0-.82,0-2.34-1.55-2.34-1.76,0-1.76,1.72-1.76,2.29v3.54H7.66V7.4h1.7V8.48h.53L10,8.32a2.2,2.2,0,0,1,2-1.09M5.55,7.4v7.18H3.72V7.4H5.55M16.1.15H2.2A2.07,2.07,0,0,0,.15,2.2V16.1a2.07,2.07,0,0,0,2.05,2H16.1a2.07,2.07,0,0,0,2-2V2.2a2.07,2.07,0,0,0-2-2.05ZM2.2,16.51a.39.39,0,0,1-.41-.41V2.2a.39.39,0,0,1,.41-.41H16.1a.39.39,0,0,1,.41.41V16.1a.39.39,0,0,1-.41.41ZM4.6,3.19A1.41,1.41,0,1,0,6,4.6,1.41,1.41,0,0,0,4.6,3.19ZM12,6.93A2.54,2.54,0,0,0,9.71,8.18H9.66V7.1H7.36v7.78h2.4V11c0-1,.2-2,1.46-2s1.25,1.14,1.25,2v3.79h2.41V10.61c0-2.09-.45-3.68-2.89-3.68ZM5.85,7.1H3.42v7.78H5.85V7.1Z"/></g></svg>