<svg id="Layer_2" data-name="Layer 2" xmlns="http://www.w3.org/2000/svg" viewBox="0 0 19.18 25.38"><defs><style>.cls-1{fill:#fff;}</style></defs><title>pin</title><path class="cls-1" d="M9.59,4.51a5.08,5.08,0,1,0,5.08,5.08A5.09,5.09,0,0,0,9.59,4.51Zm0,9a3.95,3.95,0,1,1,3.95-3.95A4,4,0,0,1,9.59,13.54Z"/><path class="cls-1" d="M9.59,0A9.61,9.61,0,0,0,0,9.59C0,16.81,8.83,24.9,9.21,25.24a.58.58,0,0,0,.76,0c.37-.34,9.21-8.43,9.21-15.65A9.61,9.61,0,0,0,9.59,0Zm0,24C7.9,22.41,1.13,15.5,1.13,9.59a8.46,8.46,0,0,1,16.92,0C18.05,15.5,11.28,22.41,9.59,24Z"/></svg>