<svg id="Layer_2" data-name="Layer 2" xmlns="http://www.w3.org/2000/svg" viewBox="0 0 20.3 18.3"><defs><style>.cls-1{fill:#fff;}</style></defs><title>twitter</title><g id="surface1"><path class="cls-1" d="M13.79,1.27A4.17,4.17,0,0,0,9.62,5.44c0,.13,0,.27.05.4A10.34,10.34,0,0,1,2.61,2.11.38.38,0,0,0,2.28,2a.36.36,0,0,0-.3.19,4.14,4.14,0,0,0-.57,2.09,4.17,4.17,0,0,0,.84,2.46c-.09,0-.2-.07-.3-.12a.35.35,0,0,0-.37,0,.37.37,0,0,0-.19.32V7a4.14,4.14,0,0,0,1.81,3.4h0a.39.39,0,0,0-.36.12.41.41,0,0,0-.08.37,4.18,4.18,0,0,0,2.88,2.72,7.09,7.09,0,0,1-3.68,1,7.94,7.94,0,0,1-.85,0,.37.37,0,0,0-.41.25.36.36,0,0,0,.16.45,11,11,0,0,0,6,1.77,10.8,10.8,0,0,0,8.28-3.64A11.59,11.59,0,0,0,18,5.88c0-.11,0-.22,0-.32a7.9,7.9,0,0,0,1.83-1.91.38.38,0,0,0,0-.47.39.39,0,0,0-.45-.1c-.2.09-.43.1-.64.17a3.88,3.88,0,0,0,.65-1.2.38.38,0,0,0-.56-.44,7.38,7.38,0,0,1-2.15.83A4.14,4.14,0,0,0,13.79,1.27Zm0,.77a3.4,3.4,0,0,1,2.48,1.08.37.37,0,0,0,.36.11,8.56,8.56,0,0,0,1.44-.43,3.38,3.38,0,0,1-1,.9.38.38,0,0,0-.2.47.4.4,0,0,0,.45.25,9.72,9.72,0,0,0,1.09-.3,8.23,8.23,0,0,1-1.08,1,.37.37,0,0,0-.15.33c0,.16,0,.31,0,.47a10.79,10.79,0,0,1-2.68,7,10,10,0,0,1-7.7,3.38,10.24,10.24,0,0,1-4.29-.94,7.87,7.87,0,0,0,4.32-1.64A.38.38,0,0,0,6.63,13a3.39,3.39,0,0,1-2.89-1.8H3.8a4.07,4.07,0,0,0,1.11-.15.38.38,0,0,0,0-.74A3.39,3.39,0,0,1,2.25,7.54a4.49,4.49,0,0,0,1.22.25.38.38,0,0,0,.38-.27.37.37,0,0,0-.16-.44A3.4,3.4,0,0,1,2.18,4.25,3.39,3.39,0,0,1,2.45,3a11,11,0,0,0,7.64,3.66.39.39,0,0,0,.32-.13.43.43,0,0,0,.08-.33A3.37,3.37,0,0,1,13.79,2Z"/></g></svg>